<svg fill="currentColor" height="800px" width="800px" version="1.1" id="Layer_1" xmlns="http://www.w3.org/2000/svg" xmlns:xlink="http://www.w3.org/1999/xlink" 
	 viewBox="0 0 512 512" xml:space="preserve">
<g>
	<g>
		<path d="M412.735,208.98c-4.161,0-8.312,0.261-12.431,0.781c-8.848-27.545-25.589-52.301-48.147-70.848
			C325.159,116.714,291.009,104.49,256,104.49c-35.009,0-69.159,12.224-96.157,34.423c-22.559,18.547-39.3,43.304-48.148,70.848
			c-4.118-0.52-8.268-0.782-12.43-0.782C44.53,208.98,0,253.51,0,308.245c0,54.735,44.53,99.265,99.265,99.265h313.469
			c54.735,0,99.265-44.53,99.265-99.265C512,253.51,467.47,208.98,412.735,208.98z M412.735,376.163H99.265
			c-37.45,0-67.918-30.468-67.918-67.918c0-37.45,30.468-67.918,67.918-67.918c6.537,0,13.038,0.944,19.321,2.803l16.316,4.833
			l3.477-16.658c11.547-55.318,61.014-95.468,117.62-95.468s106.073,40.15,117.621,95.469l3.477,16.658l16.316-4.833
			c6.282-1.861,12.782-2.805,19.32-2.805c37.45,0,67.918,30.468,67.918,67.918C480.653,345.695,450.185,376.163,412.735,376.163z"/>
	</g>
</g>
</svg>