<svg version="1.0" xmlns="http://www.w3.org/2000/svg"
 width="512.000000pt" height="512.000000pt" viewBox="0 0 512.000000 512.000000"
 preserveAspectRatio="xMidYMid meet">

<g transform="translate(0.000000,512.000000) scale(0.100000,-0.100000)"
fill="currentColor" stroke="none">
<path d="M765 3873 c-38 -8 -92 -24 -118 -35 -45 -20 -48 -23 -42 -52 3 -17
28 -76 55 -131 131 -270 403 -423 713 -401 119 8 194 28 306 83 93 44 95 45
128 29 18 -8 52 -40 75 -70 23 -30 44 -53 46 -51 8 7 -30 120 -60 179 -126
251 -356 401 -690 450 -131 20 -320 19 -413 -1z m368 -90 c4 -2 7 -36 7 -74 0
-65 23 -197 40 -228 17 -32 99 131 115 232 3 20 10 37 16 37 22 0 168 -62 214
-91 102 -64 113 -93 80 -207 l-16 -52 -72 -22 c-60 -19 -93 -23 -202 -22 -115
0 -139 4 -210 28 -44 15 -100 39 -125 53 -55 32 -167 138 -187 176 -16 31 -11
87 12 144 12 27 19 32 57 36 48 5 259 -2 271 -10z"/>
<path d="M3966 3834 c-112 -15 -245 -50 -330 -88 -197 -87 -355 -258 -422
-458 -34 -100 -30 -108 20 -41 25 34 58 67 79 76 l35 17 87 -45 c127 -65 242
-89 392 -82 130 5 203 22 307 70 162 74 296 224 362 403 31 86 30 89 -44 118
-115 44 -301 56 -486 30z m331 -92 c16 -10 29 -48 38 -108 6 -51 6 -52 -44
-111 -63 -76 -164 -144 -266 -179 -116 -40 -286 -45 -403 -14 -98 26 -110 42
-119 150 l-6 68 44 32 c72 52 262 140 276 127 2 -2 8 -30 14 -61 12 -69 41
-139 76 -185 21 -27 27 -31 34 -18 17 29 39 159 39 227 0 63 2 69 23 73 39 8
282 7 294 -1z"/>
<path d="M2184 2730 c-53 -21 -83 -109 -51 -151 7 -9 51 -43 98 -77 137 -97
173 -149 220 -322 13 -46 34 -99 47 -119 23 -33 24 -42 19 -121 -8 -106 -37
-214 -83 -304 -62 -123 -147 -211 -304 -314 -63 -41 -119 -79 -125 -84 -28
-26 165 36 235 75 113 64 241 221 292 360 11 32 24 54 28 50 4 -4 15 -30 25
-58 28 -79 101 -190 171 -259 85 -85 205 -146 334 -171 27 -6 6 12 -101 83
-92 61 -156 113 -201 161 -110 119 -177 282 -193 469 -7 73 -6 83 14 108 12
15 35 73 53 128 55 181 81 219 217 316 116 83 131 106 105 169 -31 78 -106 89
-306 45 l-118 -26 -121 26 c-122 26 -216 32 -255 16z"/>
</g>
</svg>
